<svg width="170" height="170" viewBox="0 0 170 170" fill="none" xmlns="http://www.w3.org/2000/svg">
<circle cx="85" cy="85" r="85" fill="white"/>
<path fill-rule="evenodd" clip-rule="evenodd" d="M99.0835 82.0667L86.3302 89.4298L93.2025 101.333L105.956 93.9697C109.243 92.072 110.369 87.8692 108.471 84.5821C106.573 81.2952 102.37 80.1689 99.0835 82.0667ZM95.1659 104.734L107.919 97.3707C113.084 94.3886 114.854 87.7838 111.872 82.6186C108.89 77.4534 102.285 75.6837 97.12 78.6659L84.3667 86.029C84.0956 85.5593 83.4951 85.3985 83.0257 85.6697L68.572 94.0145C62.9372 97.2676 61.0067 104.473 64.2598 110.108C67.5131 115.742 74.7181 117.673 80.353 114.42L94.8066 106.075C95.2761 105.804 95.4371 105.203 95.1659 104.734ZM76.7144 93.4659L69.3629 97.6668C66.4053 99.357 65.0917 102.801 65.9068 105.939C66.1795 106.989 67.409 107.317 68.3505 106.779C68.8214 106.51 68.9725 105.911 68.8125 105.393C68.2103 103.444 69.0053 101.263 70.8241 100.224L78.1756 96.0232C78.8817 95.6197 79.1271 94.7202 78.7237 94.0139C78.3202 93.3079 77.4205 93.0624 76.7144 93.4659Z" fill="#B2E08C"/>
<path fill-rule="evenodd" clip-rule="evenodd" d="M83.1572 87.8609L77.168 91.3188C78.4545 91.2156 79.7456 91.8451 80.4284 93.0398C81.3699 94.6874 80.7975 96.7864 79.1497 97.7279L71.7984 101.929C70.8104 102.493 70.3468 103.707 70.6884 104.813C71.0409 105.953 70.8057 107.637 69.3248 108.483C68.3949 109.015 67.2847 109.144 66.2835 108.826C66.0676 108.757 65.8569 108.667 65.6558 108.557C65.7505 108.748 65.8518 108.938 65.9602 109.126C68.6714 113.821 74.6755 115.43 79.3712 112.719L92.9747 104.865L83.1572 87.8609ZM86.3302 89.4298L99.0835 82.0667C102.37 80.1689 106.573 81.2952 108.471 84.5821C110.369 87.8692 109.243 92.072 105.956 93.9697L93.2025 101.333L86.3302 89.4298ZM95.1659 104.734L107.919 97.3707C113.084 94.3886 114.854 87.7838 111.872 82.6186C108.89 77.4534 102.285 75.6837 97.12 78.6659L84.3667 86.029C84.0956 85.5597 83.4951 85.3985 83.0257 85.6697L68.572 94.0145C62.9372 97.2676 61.0067 104.473 64.2598 110.108C67.5131 115.742 74.7181 117.673 80.353 114.42L94.8066 106.075C95.2761 105.804 95.4371 105.203 95.1659 104.734ZM69.3629 97.6668L76.7144 93.4659C77.4205 93.0624 78.3202 93.3079 78.7237 94.0139C79.1271 94.7202 78.8817 95.6197 78.1756 96.0232L70.8241 100.224C69.0053 101.263 68.2103 103.444 68.8125 105.393C68.9725 105.911 68.8214 106.51 68.3505 106.779C67.409 107.317 66.1795 106.989 65.9068 105.939C65.0917 102.801 66.4053 99.357 69.3629 97.6668Z" fill="#B2E08C"/>
<path d="M114.861 65.9641C115.27 66.3729 115.945 66.3424 116.282 65.8731C120.703 59.7345 120.152 51.1232 114.63 45.6008C109.107 40.0783 100.496 39.5275 94.3574 43.9481C93.8881 44.286 93.8577 44.9606 94.2665 45.3694L114.861 65.9641Z" fill="#B2E08C"/>
<path d="M92.184 47.452C91.7752 47.0433 91.1005 47.0737 90.7626 47.5428C86.342 53.6814 86.893 62.2927 92.4155 67.8153C97.9378 73.3376 106.549 73.8885 112.688 69.4679C113.157 69.13 113.187 68.4553 112.778 68.0465L92.184 47.452Z" fill="#B2E08C"/>
<path d="M63.4983 49.7597C65.1532 46.9788 69.2724 47.2807 70.5043 50.2731L80.1374 73.6745C81.2487 76.3739 79.1305 79.2991 76.2192 79.0859L53.6448 77.4318C50.7333 77.2184 49.0642 74.0158 50.557 71.5072L63.4983 49.7597Z" fill="#B2E08C"/>
<path d="M57.233 126.818H58.7045L62.1648 135.27H62.2841L65.7443 126.818H67.2159V137H66.0625V129.264H65.9631L62.7812 137H61.6676L58.4858 129.264H58.3864V137H57.233V126.818ZM72.7306 137.159C71.9949 137.159 71.3601 136.997 70.8265 136.672C70.2962 136.344 69.8869 135.886 69.5985 135.3C69.3135 134.71 69.171 134.024 69.171 133.241C69.171 132.459 69.3135 131.77 69.5985 131.173C69.8869 130.573 70.2879 130.106 70.8017 129.771C71.3187 129.433 71.9219 129.264 72.6113 129.264C73.0091 129.264 73.4018 129.33 73.7896 129.463C74.1774 129.596 74.5304 129.811 74.8485 130.109C75.1667 130.404 75.4203 130.795 75.6092 131.283C75.7981 131.77 75.8926 132.37 75.8926 133.082V133.58H70.0062V132.565H74.6994C74.6994 132.134 74.6132 131.75 74.4409 131.412C74.2718 131.074 74.0299 130.807 73.715 130.612C73.4035 130.416 73.0356 130.318 72.6113 130.318C72.144 130.318 71.7396 130.434 71.3983 130.666C71.0602 130.895 70.8 131.193 70.6177 131.561C70.4354 131.929 70.3443 132.323 70.3443 132.744V133.42C70.3443 133.997 70.4437 134.486 70.6426 134.887C70.8448 135.285 71.1248 135.588 71.4828 135.797C71.8407 136.002 72.2567 136.105 72.7306 136.105C73.0389 136.105 73.3173 136.062 73.5659 135.976C73.8178 135.886 74.0349 135.754 74.2172 135.578C74.3994 135.399 74.5403 135.177 74.6397 134.912L75.7733 135.23C75.6539 135.615 75.4534 135.953 75.1717 136.244C74.89 136.533 74.542 136.758 74.1277 136.92C73.7134 137.08 73.2477 137.159 72.7306 137.159ZM80.5609 137.159C79.9245 137.159 79.3627 136.998 78.8755 136.677C78.3883 136.352 78.0072 135.895 77.7321 135.305C77.457 134.711 77.3194 134.01 77.3194 133.202C77.3194 132.4 77.457 131.704 77.7321 131.114C78.0072 130.524 78.39 130.068 78.8805 129.746C79.371 129.425 79.9378 129.264 80.5808 129.264C81.0779 129.264 81.4707 129.347 81.7591 129.513C82.0507 129.675 82.2728 129.861 82.4252 130.07C82.581 130.275 82.702 130.444 82.7882 130.577H82.8876V126.818H84.0609V137H82.9274V135.827H82.7882C82.702 135.966 82.5794 136.142 82.4203 136.354C82.2612 136.562 82.0342 136.75 81.7392 136.915C81.4442 137.078 81.0514 137.159 80.5609 137.159ZM80.72 136.105C81.1906 136.105 81.5884 135.982 81.9132 135.737C82.238 135.489 82.4849 135.146 82.6539 134.708C82.823 134.267 82.9075 133.759 82.9075 133.182C82.9075 132.612 82.8246 132.113 82.6589 131.685C82.4932 131.254 82.2479 130.92 81.9231 130.681C81.5983 130.439 81.1973 130.318 80.72 130.318C80.2228 130.318 79.8085 130.446 79.4771 130.701C79.149 130.953 78.902 131.296 78.7363 131.73C78.5739 132.161 78.4927 132.645 78.4927 133.182C78.4927 133.725 78.5756 134.219 78.7413 134.663C78.9103 135.104 79.1589 135.455 79.487 135.717C79.8185 135.976 80.2295 136.105 80.72 136.105ZM86.5318 137V126.818H87.7647V131.352H93.1937V126.818H94.4267V137H93.1937V132.446H87.7647V137H86.5318ZM99.9377 137.159C99.2019 137.159 98.5672 136.997 98.0336 136.672C97.5033 136.344 97.0939 135.886 96.8056 135.3C96.5205 134.71 96.378 134.024 96.378 133.241C96.378 132.459 96.5205 131.77 96.8056 131.173C97.0939 130.573 97.495 130.106 98.0087 129.771C98.5257 129.433 99.129 129.264 99.8184 129.264C100.216 129.264 100.609 129.33 100.997 129.463C101.384 129.596 101.737 129.811 102.056 130.109C102.374 130.404 102.627 130.795 102.816 131.283C103.005 131.77 103.1 132.37 103.1 133.082V133.58H97.2132V132.565H101.906C101.906 132.134 101.82 131.75 101.648 131.412C101.479 131.074 101.237 130.807 100.922 130.612C100.61 130.416 100.243 130.318 99.8184 130.318C99.351 130.318 98.9467 130.434 98.6053 130.666C98.2672 130.895 98.007 131.193 97.8248 131.561C97.6425 131.929 97.5513 132.323 97.5513 132.744V133.42C97.5513 133.997 97.6507 134.486 97.8496 134.887C98.0518 135.285 98.3319 135.588 98.6898 135.797C99.0478 136.002 99.4637 136.105 99.9377 136.105C100.246 136.105 100.524 136.062 100.773 135.976C101.025 135.886 101.242 135.754 101.424 135.578C101.606 135.399 101.747 135.177 101.847 134.912L102.98 135.23C102.861 135.615 102.66 135.953 102.379 136.244C102.097 136.533 101.749 136.758 101.335 136.92C100.92 137.08 100.455 137.159 99.9377 137.159ZM106.058 126.818V137H104.884V126.818H106.058ZM108.207 139.864V129.364H109.34V130.577H109.479C109.566 130.444 109.685 130.275 109.837 130.07C109.993 129.861 110.215 129.675 110.504 129.513C110.795 129.347 111.19 129.264 111.687 129.264C112.33 129.264 112.897 129.425 113.387 129.746C113.878 130.068 114.26 130.524 114.536 131.114C114.811 131.704 114.948 132.4 114.948 133.202C114.948 134.01 114.811 134.711 114.536 135.305C114.26 135.895 113.879 136.352 113.392 136.677C112.905 136.998 112.343 137.159 111.707 137.159C111.216 137.159 110.823 137.078 110.528 136.915C110.233 136.75 110.006 136.562 109.847 136.354C109.688 136.142 109.566 135.966 109.479 135.827H109.38V139.864H108.207ZM109.36 133.182C109.36 133.759 109.445 134.267 109.614 134.708C109.783 135.146 110.03 135.489 110.354 135.737C110.679 135.982 111.077 136.105 111.548 136.105C112.038 136.105 112.447 135.976 112.776 135.717C113.107 135.455 113.356 135.104 113.521 134.663C113.69 134.219 113.775 133.725 113.775 133.182C113.775 132.645 113.692 132.161 113.526 131.73C113.364 131.296 113.117 130.953 112.786 130.701C112.457 130.446 112.045 130.318 111.548 130.318C111.07 130.318 110.669 130.439 110.344 130.681C110.02 130.92 109.774 131.254 109.609 131.685C109.443 132.113 109.36 132.612 109.36 133.182Z" fill="#7FE22D"/>
</svg>
